<svg width="26" height="26" viewBox="0 0 26 26" fill="none" xmlns="http://www.w3.org/2000/svg">
<rect width="26" height="26" rx="13" fill="url(#paint0_linear_3_6)"/>
<path d="M17.1205 17.2634V12.9241H16.2165C16.3058 13.2054 16.3504 13.4978 16.3504 13.8013C16.3504 14.3638 16.2076 14.8839 15.9219 15.3616C15.6362 15.8348 15.2478 16.2098 14.7567 16.4866C14.2656 16.7634 13.7299 16.9018 13.1496 16.9018C12.2701 16.9018 11.5179 16.6004 10.8929 15.9978C10.2679 15.3906 9.95536 14.6585 9.95536 13.8013C9.95536 13.4978 10 13.2054 10.0893 12.9241H9.14509V17.2634C9.14509 17.3795 9.18304 17.4777 9.25893 17.558C9.33929 17.6339 9.4375 17.6719 9.55357 17.6719H16.7121C16.8237 17.6719 16.9196 17.6339 17 17.558C17.0804 17.4777 17.1205 17.3795 17.1205 17.2634ZM14.6094 15.1138C15.0156 14.721 15.2188 14.2478 15.2188 13.6942C15.2188 13.1406 15.0156 12.6696 14.6094 12.2812C14.2076 11.8884 13.721 11.692 13.1496 11.692C12.5826 11.692 12.096 11.8884 11.6897 12.2812C11.2879 12.6696 11.0871 13.1406 11.0871 13.6942C11.0871 14.2478 11.2879 14.721 11.6897 15.1138C12.096 15.5022 12.5826 15.6964 13.1496 15.6964C13.721 15.6964 14.2076 15.5022 14.6094 15.1138ZM17.1205 11.2835V10.1786C17.1205 10.0536 17.0759 9.94643 16.9866 9.85714C16.8973 9.76339 16.7879 9.71652 16.6585 9.71652H15.4933C15.3638 9.71652 15.2545 9.76339 15.1652 9.85714C15.0759 9.94643 15.0312 10.0536 15.0312 10.1786V11.2835C15.0312 11.4129 15.0759 11.5223 15.1652 11.6116C15.2545 11.7009 15.3638 11.7455 15.4933 11.7455H16.6585C16.7879 11.7455 16.8973 11.7009 16.9866 11.6116C17.0759 11.5223 17.1205 11.4129 17.1205 11.2835ZM18.2857 9.89062V17.5379C18.2857 17.8996 18.1563 18.2098 17.8973 18.4688C17.6384 18.7277 17.3281 18.8571 16.9665 18.8571H9.3192C8.95759 18.8571 8.64732 18.7277 8.38839 18.4688C8.12946 18.2098 8 17.8996 8 17.5379V9.89062C8 9.52902 8.12946 9.21875 8.38839 8.95982C8.64732 8.70089 8.95759 8.57143 9.3192 8.57143H16.9665C17.3281 8.57143 17.6384 8.70089 17.8973 8.95982C18.1563 9.21875 18.2857 9.52902 18.2857 9.89062Z" fill="white"/>
<defs>
<linearGradient id="paint0_linear_3_6" x1="13" y1="0" x2="13" y2="26" gradientUnits="userSpaceOnUse">
<stop stop-color="#D828DC"/>
<stop offset="0.177083" stop-color="#F015A6"/>
<stop offset="1" stop-color="#FFC90A"/>
</linearGradient>
</defs>
</svg>
