<svg width="26" height="26" viewBox="0 0 26 26" fill="none" xmlns="http://www.w3.org/2000/svg">
<rect width="26" height="26" rx="13" fill="#1E6CA4"/>
<path d="M18.8371 10.1964C18.9397 10.4821 18.6049 11.1384 17.8326 12.1652C17.7254 12.308 17.5804 12.4978 17.3973 12.7344C17.0491 13.1808 16.8482 13.4732 16.7946 13.6116C16.7188 13.7946 16.75 13.9754 16.8884 14.154C16.9643 14.2478 17.1451 14.4308 17.4308 14.7031H17.4375L17.4442 14.7098L17.4509 14.7165L17.4643 14.7299C18.0938 15.3147 18.5201 15.808 18.7433 16.2098C18.7567 16.2321 18.7701 16.2612 18.7835 16.2969C18.8013 16.3281 18.817 16.3862 18.8304 16.471C18.8482 16.5558 18.8482 16.6317 18.8304 16.6987C18.8125 16.7656 18.7567 16.8281 18.6629 16.8862C18.5692 16.9397 18.4375 16.9665 18.2679 16.9665L16.5536 16.9933C16.4464 17.0156 16.3214 17.0045 16.1786 16.9598C16.0357 16.9152 15.9196 16.8661 15.8304 16.8125L15.6964 16.7321C15.5625 16.6384 15.4063 16.4955 15.2277 16.3036C15.0491 16.1116 14.8951 15.9397 14.7656 15.7879C14.6406 15.6317 14.5045 15.5022 14.3571 15.3996C14.2143 15.2924 14.0893 15.2567 13.9821 15.2924C13.9688 15.2969 13.9509 15.3058 13.9286 15.3192C13.9063 15.3281 13.8683 15.3594 13.8147 15.4129C13.7612 15.4665 13.7121 15.5335 13.6674 15.6138C13.6272 15.6897 13.5893 15.8058 13.5536 15.9621C13.5223 16.1138 13.5089 16.2857 13.5134 16.4777C13.5134 16.5446 13.5045 16.6071 13.4866 16.6652C13.4732 16.7187 13.4576 16.7589 13.4397 16.7857L13.4129 16.8192C13.3326 16.904 13.2143 16.9531 13.058 16.9665H12.2879C11.971 16.9844 11.6451 16.9487 11.3103 16.8594C10.9754 16.7656 10.6808 16.6473 10.4263 16.5045C10.1763 16.3571 9.94643 16.2098 9.73661 16.0625C9.53125 15.9107 9.375 15.7812 9.26786 15.6741L9.10045 15.5134C9.0558 15.4687 8.9933 15.4018 8.91295 15.3125C8.83705 15.2232 8.67857 15.0201 8.4375 14.7031C8.19643 14.3862 7.95982 14.0491 7.72768 13.692C7.49554 13.3348 7.22098 12.8638 6.90402 12.279C6.59152 11.6942 6.30134 11.0871 6.03348 10.4576C6.0067 10.3862 5.9933 10.3259 5.9933 10.2768C5.9933 10.2277 6 10.192 6.01339 10.1696L6.04018 10.1295C6.10714 10.0446 6.23438 10.0022 6.42188 10.0022L8.2567 9.98884C8.31027 9.99777 8.36161 10.0134 8.41071 10.0357C8.45982 10.0536 8.49554 10.0714 8.51786 10.0893L8.55134 10.1094C8.62277 10.1585 8.67634 10.2299 8.71205 10.3237C8.80134 10.5469 8.90402 10.779 9.02009 11.0201C9.13616 11.2567 9.22768 11.4375 9.29464 11.5625L9.40179 11.7567C9.53125 12.0246 9.65625 12.2567 9.77679 12.4531C9.89732 12.6496 10.0045 12.8036 10.0982 12.9152C10.1964 13.0223 10.2902 13.1071 10.3795 13.1696C10.4688 13.2321 10.5446 13.2634 10.6071 13.2634C10.6696 13.2634 10.7299 13.2522 10.7879 13.2299C10.7969 13.2254 10.808 13.2143 10.8214 13.1964C10.8348 13.1786 10.8616 13.1295 10.9018 13.0491C10.942 12.9687 10.971 12.8638 10.9888 12.7344C11.0112 12.6049 11.0335 12.4241 11.0558 12.192C11.0781 11.9598 11.0781 11.6808 11.0558 11.3549C11.0469 11.1763 11.0268 11.0134 10.9955 10.8661C10.9643 10.7187 10.933 10.6161 10.9018 10.558L10.8616 10.4777C10.75 10.3259 10.5603 10.2299 10.2924 10.1897C10.2344 10.1808 10.2455 10.1272 10.3259 10.029C10.4018 9.9442 10.4866 9.87723 10.5804 9.82812C10.817 9.71205 11.3504 9.65848 12.1808 9.66741C12.5469 9.67187 12.8482 9.70089 13.0848 9.75446C13.1741 9.77679 13.2478 9.80804 13.3058 9.84821C13.3683 9.88393 13.4152 9.9375 13.4464 10.0089C13.4777 10.0759 13.5 10.1473 13.5134 10.2232C13.5313 10.2946 13.5402 10.3951 13.5402 10.5246C13.5402 10.654 13.5379 10.7768 13.5335 10.8929C13.529 11.0089 13.5223 11.1674 13.5134 11.3683C13.5089 11.5647 13.5067 11.7478 13.5067 11.9174C13.5067 11.9665 13.5045 12.0603 13.5 12.1987C13.4955 12.3371 13.4933 12.4442 13.4933 12.5201C13.4978 12.596 13.5067 12.6875 13.5201 12.7946C13.5335 12.8973 13.558 12.9844 13.5938 13.0558C13.6339 13.1228 13.6853 13.1763 13.7478 13.2165C13.7835 13.2254 13.8214 13.2344 13.8616 13.2433C13.9018 13.2522 13.9598 13.2277 14.0357 13.1696C14.1116 13.1116 14.1964 13.0357 14.2902 12.942C14.3839 12.8437 14.5 12.6942 14.6384 12.4933C14.7768 12.2879 14.9286 12.0469 15.0938 11.7701C15.3616 11.3058 15.6004 10.8036 15.8103 10.2634C15.8281 10.2187 15.8504 10.1808 15.8772 10.1496C15.904 10.1138 15.9286 10.0893 15.9509 10.0759L15.9777 10.0558C15.9866 10.0513 15.9978 10.0469 16.0112 10.0424C16.0246 10.0335 16.0536 10.0268 16.0982 10.0223C16.1429 10.0134 16.1875 10.0112 16.2321 10.0156L18.1607 10.0022C18.3348 9.97991 18.4777 9.98661 18.5893 10.0223C18.7009 10.0536 18.7701 10.0893 18.7969 10.1295L18.8371 10.1964Z" fill="white"/>
</svg>
